<svg id="Layer_1" data-name="Layer 1" xmlns="http://www.w3.org/2000/svg" xmlns:xlink="http://www.w3.org/1999/xlink" viewBox="0 0 513.89 75"><defs><style>.cls-1{fill:none;}.cls-2{clip-path:url(#clip-path);}.cls-3{fill:#fff;}.cls-4{fill:#1fc0da;}</style><clipPath id="clip-path"><path id="SVGID" class="cls-1" d="M62.37,8.57l.85,10.35L57,32l-.78,14.47-.79,4.78-4.5,4.11-4.63,1.44-2.69,3.5L35.54,70.9H31.85L21.1,56.75l-4.63-1.44L12,51.2l-.79-4.78L10.4,32l-6.23-13L5,8.57l13.35,12,1.87.25L33.7,18.42l13.45,2.39L49,20.56l13.35-12M65.77,0,59.63,5.52,47.23,16.66,34.41,14.38l-.71-.12-.72.12L20.16,16.66,7.76,5.52,1.62,0,.94,8.23.09,18.58,0,19.69l.48,1L6.36,33l.73,13.66v.22l0,.23.79,4.78.23,1.4,1.05.95,4.49,4.12.68.61.88.28,3.38,1,10,13.11L29.82,75h7.76l1.23-1.62,8.06-10.66,1.88-2.45,3.38-1L53,59l.68-.61,4.5-4.12,1-.95.23-1.4.8-4.78,0-.23v-.22L61,33l5.88-12.29.48-1-.09-1.11L66.45,8.23,65.77,0Z"/></clipPath></defs><g class="cls-2"><rect class="cls-3" width="67.39" height="75"/><circle class="cls-4" cx="33.7" cy="37.5" r="15.94"/><rect class="cls-4" x="33.7" y="37.5" transform="translate(-16.65 34.81) rotate(-45)"/><rect class="cls-4" x="33.7" y="37.5" transform="translate(-16.65 34.81) rotate(-45)"/><rect class="cls-4" x="33.7" y="37.5" transform="translate(-16.65 34.81) rotate(-45)"/><rect class="cls-4" x="33.7" y="37.5" transform="translate(-16.65 34.81) rotate(-45)"/></g><path class="cls-3" d="M97,13.51h6.21V53.39c0,3.58,2.22,3.51,4.18,3.51H127v6H106.46c-4.71,0-9.48-1.18-9.48-8.8Z"/><path class="cls-3" d="M132.72,13.51l11.91,25.31,13.13-25.31h6.78L147.69,46V62.9h-6.21V46L125.94,13.51Z"/><path class="cls-3" d="M171.13,13.51h6.35L202,51.37V13.51h6.21V62.9H202L177.41,25.15V62.9h-6.28Z"/><path class="cls-3" d="M221.56,13.51,233,33.17l11.61-19.66h6.82L236.74,38,251.05,62.9h-6.83L233,43.26,221.76,62.9h-6.82L229.14,38l-14.4-24.44Z"/><path class="cls-3" d="M274.84,13.51h6.21V62.9h-6.21Z"/><path class="cls-3" d="M288.56,27.07h4.62l1.59,4.09c3.83-2.32,7.25-4.69,12.71-4.69,7.48,0,11,5.59,11,11.77V62.9h-6.21V38.2c0-4.21-2.35-6-5.49-6-5,0-7.45,1.25-12,3.64V62.9h-6.21Z"/><path class="cls-3" d="M323.39,35.85c0-5.54,2.36-9.11,9.31-9.11,4.43,0,14.72.6,18,1.28v4.42H333.49c-3.8,0-3.89,1.44-3.89,3.57v2.7c0,3.31,1.65,3.43,3.89,3.43h10.07c6.14,0,9,3.75,9,8.86v3.4c0,7.36-4.45,8.84-8.77,8.84s-16.35-.82-18.9-1.46V57.47h18.07a3,3,0,0,0,3.39-3.27V51.34c0-2.13-.71-3.34-3.39-3.34h-10c-6.34,0-9.51-2.1-9.51-9Z"/><path class="cls-3" d="M354.92,28.42,361.36,27l1.32-10h4.89V27h9.79v5.6h-9.79V49.68c0,5.71,1.46,7,3.63,7.58,0,0,5.13,1.41,5.6,1.41v4.19h-6.56c-5.23,0-8.88-3.26-8.88-12.78V32.61h-6.44Z"/><path class="cls-3" d="M382.39,17.12A1.51,1.51,0,0,1,384,15.44h4.38a1.52,1.52,0,0,1,1.55,1.68V21.4A1.42,1.42,0,0,1,388.39,23H384a1.51,1.51,0,0,1-1.62-1.56Zm.58,10h6.21V62.9H383Z"/><path class="cls-3" d="M394.33,28.42,400.76,27l1.32-10H407V27h9.79v5.6H407V49.68c0,5.71,1.46,7,3.63,7.58,0,0,5.13,1.41,5.61,1.41v4.19h-6.57c-5.23,0-8.88-3.26-8.88-12.78V32.61h-6.43Z"/><path class="cls-3" d="M421.79,27.07H428V51.78c0,4.21,2.35,6,5.5,6,5,0,7.44-1.25,12-3.64V27.07h6.2V62.9h-4.62l-1.58-4.08c-4,2.3-7.26,4.69-12.72,4.69-7.48,0-11-5.59-11-11.77Z"/><path class="cls-3" d="M456.67,28.42,463.11,27l1.31-10h4.9V27h9.79v5.6h-9.79V49.68c0,5.71,1.46,7,3.63,7.58,0,0,5.13,1.41,5.6,1.41v4.19H472c-5.23,0-8.88-3.26-8.88-12.78V32.61h-6.44Z"/><path class="cls-3" d="M499.79,26.8c9,0,14.1.92,14.1,12.79,0,5.52-3,8.44-9.44,8.44h-14.1c0,7.89,1.79,9.52,7,9.52,6,0,10.8.06,15.86-.68v4.48C507.87,63,501.55,63.24,496,63.24c-9.11,0-11.81-4.63-11.81-18.42C484.14,29,488.65,26.8,499.79,26.8Zm4,15.79c2.7,0,3.91-1,3.91-3.13,0-6.39-1.16-7.05-7.7-7.05-6.91,0-9.66.12-9.64,10.18Z"/></svg>