<?xml version="1.0" standalone="no"?>
<!DOCTYPE svg PUBLIC "-//W3C//DTD SVG 20010904//EN"
 "http://www.w3.org/TR/2001/REC-SVG-20010904/DTD/svg10.dtd">
<svg version="1.0" xmlns="http://www.w3.org/2000/svg"
 width="774.000000pt" height="830.000000pt" viewBox="0 0 774.000000 830.000000"
 preserveAspectRatio="xMidYMid meet">

<g transform="translate(0.000000,830.000000) scale(0.100000,-0.100000)"
fill="#000000" stroke="none">
<path d="M506 7831 c-3 -5 -13 -100 -21 -212 -8 -112 -19 -240 -24 -284 -5
-44 -15 -161 -21 -260 -7 -99 -15 -199 -20 -223 -4 -23 -8 -86 -9 -140 l-2
-97 97 -200 c53 -110 116 -243 141 -295 25 -52 73 -151 106 -220 61 -128 136
-285 212 -445 23 -49 72 -152 109 -228 l66 -139 43 7 c23 3 74 12 112 20 39 7
122 23 185 35 63 11 135 25 160 30 47 9 84 16 265 50 96 18 151 20 443 20 192
0 332 4 332 9 0 5 -42 92 -94 193 -177 343 -243 473 -372 727 l-129 253 -240
216 c-132 119 -278 250 -325 292 -47 41 -89 80 -95 86 -5 6 -75 69 -155 139
-80 71 -147 131 -150 134 -7 8 -169 155 -300 271 -58 51 -145 129 -193 174
-98 90 -113 100 -121 87z"/>
<path d="M7224 7794 c-21 -20 -77 -71 -123 -113 -47 -42 -92 -83 -101 -91 -22
-20 -163 -146 -225 -201 -27 -25 -70 -63 -95 -86 -25 -22 -94 -84 -155 -138
-60 -54 -112 -101 -115 -104 -3 -3 -41 -37 -85 -76 -44 -38 -82 -72 -85 -76
-3 -3 -48 -43 -100 -90 -52 -46 -102 -91 -111 -99 -30 -29 -174 -158 -231
-207 -80 -70 -94 -89 -174 -248 -38 -77 -132 -261 -209 -410 -191 -374 -295
-583 -295 -595 0 -7 119 -10 353 -10 310 0 361 -3 427 -19 41 -10 102 -22 135
-25 33 -4 76 -11 95 -16 45 -12 191 -40 255 -50 28 -5 84 -15 125 -24 41 -9
90 -16 108 -16 36 0 15 -40 332 625 29 61 88 183 131 273 44 89 79 164 79 166
0 2 50 105 110 230 121 248 120 246 100 398 -5 40 -14 141 -19 223 -6 83 -17
229 -26 325 -27 324 -35 425 -35 458 0 42 -16 41 -66 -4z"/>
<path d="M3740 6661 c-52 -11 -149 -29 -215 -40 -236 -42 -351 -62 -425 -76
-41 -7 -131 -23 -200 -35 -69 -12 -170 -30 -225 -40 -55 -10 -157 -28 -227
-41 -71 -13 -128 -27 -128 -33 0 -5 37 -79 82 -165 45 -86 101 -194 126 -241
42 -80 82 -156 192 -365 26 -49 77 -146 113 -215 149 -286 171 -329 218 -416
l49 -91 0 -581 c0 -461 3 -580 13 -576 6 3 24 31 39 62 47 98 285 587 388 797
276 563 346 700 357 703 12 3 86 -142 330 -648 46 -96 89 -184 95 -195 6 -11
15 -27 19 -35 5 -8 65 -132 135 -275 199 -411 197 -407 206 -393 4 7 8 270 8
583 0 463 3 574 14 590 13 20 54 96 181 340 37 72 74 140 81 151 7 12 35 64
62 115 27 52 65 123 84 159 19 36 59 110 88 165 29 55 64 120 78 145 13 25 57
108 98 185 40 77 79 153 88 169 18 34 13 46 -17 46 -12 0 -94 14 -182 31 -88
16 -187 34 -220 39 -33 5 -82 14 -110 20 -27 6 -77 15 -110 19 -33 5 -94 16
-135 24 -41 9 -131 25 -200 37 -69 12 -156 28 -195 35 -38 7 -104 19 -145 25
-41 7 -87 16 -102 20 -63 20 -211 20 -308 1z"/>
<path d="M2197 5134 c-6 -6 44 -75 179 -246 38 -48 110 -139 159 -203 50 -64
127 -164 173 -223 88 -113 89 -116 121 -292 137 -754 126 -751 129 -32 l2 614
-86 146 c-47 81 -91 156 -97 167 -7 11 -20 32 -30 47 l-18 28 -263 0 c-144 0
-265 -3 -269 -6z"/>
<path d="M4951 4946 l-101 -194 0 -590 c0 -383 4 -593 10 -597 6 -4 10 7 10
25 0 17 9 77 19 133 11 56 27 149 37 207 9 58 27 163 40 234 13 71 24 138 24
150 0 13 74 118 183 257 100 129 196 252 212 274 17 21 51 66 78 99 108 139
137 178 137 187 0 5 -118 9 -274 9 l-274 0 -101 -194z"/>
<path d="M1915 5005 c-58 -13 -144 -30 -385 -75 -63 -12 -149 -30 -190 -39
l-75 -17 -2 -645 c-2 -354 1 -649 5 -655 5 -8 204 -159 473 -360 28 -20 307
-233 324 -246 80 -63 117 -88 130 -88 20 0 605 389 605 402 0 10 -38 262 -69
453 -51 316 -71 448 -71 467 0 21 -38 73 -295 404 -77 99 -180 233 -230 297
-101 132 -95 129 -220 102z"/>
<path d="M5573 4779 c-103 -132 -206 -264 -228 -293 -22 -30 -61 -80 -86 -112
-124 -160 -112 -135 -138 -299 -12 -83 -31 -197 -41 -255 -10 -58 -28 -168
-40 -245 -12 -77 -28 -174 -36 -214 -12 -61 -12 -77 -2 -87 16 -15 237 -164
243 -164 2 0 30 -17 62 -39 222 -148 294 -193 305 -188 7 3 125 89 261 191
137 102 251 186 253 186 2 0 49 35 104 78 54 42 147 112 205 155 l105 79 -2
651 -3 651 -30 7 c-40 9 -121 25 -230 44 -115 21 -274 51 -395 76 -52 10 -100
19 -106 19 -7 0 -97 -108 -201 -241z"/>
<path d="M3893 4998 c-5 -7 -18 -31 -28 -53 -10 -22 -131 -267 -268 -545 -367
-742 -557 -1132 -557 -1141 0 -5 383 -9 850 -9 789 0 850 1 850 17 0 17 -12
43 -166 361 -46 95 -84 175 -84 177 0 2 -42 90 -94 197 -93 192 -155 321 -268
558 -225 471 -218 459 -235 438z"/>
<path d="M1240 3341 c0 -5 6 -44 14 -87 8 -44 24 -144 36 -224 36 -239 25
-220 245 -421 369 -336 301 -290 535 -363 63 -19 153 -47 200 -61 47 -14 93
-28 103 -31 11 -3 17 0 17 10 0 8 -43 111 -96 228 -53 117 -109 241 -124 274
-24 54 -37 68 -101 113 -41 28 -92 63 -114 79 -67 47 -137 96 -210 147 -38 27
-80 56 -91 64 -12 9 -30 22 -40 28 -27 18 -284 198 -314 220 -32 23 -60 35
-60 24z"/>
<path d="M6485 3307 c-59 -40 -283 -197 -410 -287 -49 -35 -135 -94 -190 -132
-55 -38 -131 -92 -169 -121 -68 -51 -70 -54 -128 -182 -82 -179 -166 -370
-178 -400 -12 -32 -4 -32 96 0 98 31 177 56 274 85 125 38 157 51 177 74 11
11 35 34 54 50 52 45 325 294 390 356 l58 55 31 190 c17 105 35 220 42 256 6
36 9 72 7 78 -3 8 -21 1 -54 -22z"/>
<path d="M2815 3067 c-61 -40 -157 -104 -215 -142 -227 -148 -270 -178 -270
-189 0 -11 208 -497 229 -536 7 -12 98 -72 216 -140 17 -10 82 -48 145 -85 63
-38 172 -101 241 -141 l125 -72 60 18 c32 10 86 26 119 35 33 9 94 27 135 40
l75 23 3 306 2 305 -37 33 c-20 18 -64 58 -98 88 -33 30 -94 85 -135 121 -41
36 -138 121 -215 190 -201 179 -249 219 -260 219 -6 0 -60 -33 -120 -73z"/>
<path d="M4795 3083 c-85 -80 -147 -137 -245 -223 -86 -76 -139 -124 -240
-216 -102 -94 -138 -125 -156 -139 -18 -12 -19 -34 -22 -313 -2 -235 0 -301
10 -309 7 -5 42 -18 78 -27 36 -10 76 -22 90 -26 52 -16 166 -49 190 -55 20
-5 55 12 160 76 74 45 155 93 180 107 113 63 329 196 363 223 20 16 37 35 37
41 0 7 9 30 19 52 10 23 60 135 110 250 68 157 88 212 80 222 -11 14 -562 382
-582 389 -7 3 -39 -21 -72 -52z"/>
<path d="M3120 3125 c0 -10 41 -49 155 -146 369 -318 491 -424 503 -437 9 -12
12 -101 12 -368 0 -194 -3 -359 -6 -368 -6 -14 -35 -26 -154 -59 -30 -9 -117
-34 -193 -56 -154 -46 -187 -49 -225 -22 -15 10 -43 27 -62 38 -30 16 -212
124 -260 153 -65 40 -289 170 -294 170 -12 0 -6 -24 18 -75 21 -42 37 -59 93
-95 78 -50 114 -73 311 -199 79 -50 146 -91 148 -91 2 0 23 -13 46 -30 43 -32
63 -36 100 -21 13 5 88 28 168 51 80 23 195 57 255 75 187 56 183 56 275 26
30 -10 75 -24 100 -31 25 -8 49 -17 55 -22 5 -4 18 -8 30 -8 12 0 48 -9 81
-19 135 -44 231 -71 252 -71 12 0 48 16 79 37 110 69 198 126 253 162 30 20
63 41 72 46 10 6 63 39 118 75 89 58 103 70 125 118 14 29 25 57 25 63 0 11
-78 -31 -236 -127 -56 -33 -108 -64 -115 -68 -8 -3 -50 -29 -94 -56 -44 -27
-113 -68 -153 -90 l-74 -42 -121 37 c-67 21 -138 41 -157 45 -19 5 -51 13 -70
20 -19 6 -59 18 -89 26 -30 8 -61 20 -68 26 -10 8 -13 88 -13 378 l0 367 193
170 c105 94 204 181 218 194 15 13 75 67 134 119 87 77 103 95 88 101 -21 8
-1523 12 -1523 4z"/>
<path d="M2771 1678 c6 -13 35 -52 63 -88 29 -36 112 -146 186 -245 74 -99
140 -187 147 -195 52 -66 161 -209 173 -227 8 -12 71 -95 140 -185 68 -90 142
-186 163 -215 22 -29 48 -55 59 -59 11 -3 106 -3 211 1 l192 7 25 35 c14 19
30 40 36 46 10 12 286 376 414 548 85 113 108 143 151 198 146 189 287 381
279 381 -6 0 -56 -29 -111 -65 -55 -36 -103 -65 -106 -65 -3 0 -20 -10 -37
-23 -62 -46 -214 -137 -228 -137 -15 0 -43 7 -188 51 -184 55 -390 110 -425
115 -27 3 -70 -4 -130 -21 -49 -15 -106 -30 -125 -35 -19 -5 -66 -18 -105 -29
-38 -11 -113 -32 -165 -46 -52 -15 -102 -29 -110 -31 -8 -3 -39 11 -68 31 -30
19 -55 35 -57 35 -2 0 -82 49 -179 109 -96 61 -185 115 -196 121 -20 11 -21
10 -9 -12z"/>
</g>
</svg>
